{"title":"Unstoppable.R5.LINE.x264.Feel-Free","uid":6048451,"size":1168872548,"categoryP":"video","categoryS":"movies","magnet":"?xt=urn:btih:bd8ea9f1df8820b3cae2d19ccdf56919636ba3f5&amp;dn=Unstoppable.R5.LINE.x264.Feel-Free&amp;tr=udp%3A%2F%2Ftracker.openbittorrent.com%3A80&amp;tr=udp%3A%2F%2Fopen.demonii.com%3A1337&amp;tr=udp%3A%2F%2Ftracker.coppersurfer.tk%3A6969&amp;tr=udp%3A%2F%2Fexodus.desync.com%3A6969","seeders":0,"leechers":0,"uploader":"hiest","files":-1,"time":1292642093,"description":"Genre:Action | Drama | Thriller\nLanguage:English\nIMDb:http://www.imdb.com/title/tt0477080/\nSource:.DVD9 R5/Audio:T0XiC-iNK.Thx\n\n\n\nFormat : Matroska\nFile size : 1.09 GiB\nDuration : 1h 34mn\nOverall bit rate : 1 646 Kbps\n\n\nVideo\nFormat settings, CABAC : Yes\nFormat settings, ReFrames : 4 frames\nFormat settings, GOP : M=4, N=8\nCodec ID : V_MPEG4/ISO/AVC\nDuration : 1h 34mn\nBit rate : 1 274 Kbps\nWidth : 720 pixels\nHeight : 304 pixels\nDisplay aspect ratio : 2.35:1\nFrame rate mode : Variable\nFrame rate : 25.000 fps\nColor space : YUV\nChroma subsampling : 4:2:0\nBit depth : 8 bits\nScan type : Progressive\nBits/(Pixel*Frame) : 0.233\nStream size : 831 MiB (75%)\nWriting library : x264\n\n\nAudio\nID : 2\nFormat : AC-3\nFormat/Info : Audio Coding 3\nMode extension : CM (complete main)\nCodec ID : A_AC3\nDuration : 1h 34mn\nBit rate mode : Constant\nBit rate : 384 Kbps\nChannel(s) : 6 channels\nChannel positions : Front: L C R, Side: L R, LFE\nSampling rate : 48.0 KHz\nBit depth : 16 bits\nVideo delay : -1mn 5s\nStream size : 259 MiB (23%)\nLanguage : English\n\n\nPlot:\nWith an unmanned, half-mile-long freight train barreling toward a city, a veteran engineer and a young conductor race against the clock to prevent a catastrophe\n\n\n\n\n\n\n================================== &lt;a href=&quot;\nhttp://thepiratebay.se/user/hiest&quot; rel=&quot;nofollow&quot; target=&quot;_NEW&quot;&gt;\nhttp://thepiratebay.se/user/hiest&lt;/a&gt;\n==================================","torrent":{"xt":"urn:btih:bd8ea9f1df8820b3cae2d19ccdf56919636ba3f5","amp;dn":"Unstoppable.R5.LINE.x264.Feel-Free","amp;tr":["udp%3A%2F%2Ftracker.openbittorrent.com%3A80","udp%3A%2F%2Fopen.demonii.com%3A1337","udp%3A%2F%2Ftracker.coppersurfer.tk%3A6969","udp%3A%2F%2Fexodus.desync.com%3A6969"],"infoHash":"bd8ea9f1df8820b3cae2d19ccdf56919636ba3f5","infoHashBuffer":{"type":"Buffer","data":[189,142,169,241,223,136,32,179,202,226,209,156,205,245,105,25,99,107,163,245]},"announce":[],"urlList":[]}}